sumo_dl_3
version=1
nRows=11
nColumns=46
inDegrees=yes
endheader
time	ground_force3_vx	ground_force3_vy	ground_force3_vz	ground_force3_px	ground_force3_py	ground_force3_pz	ground_torque3_x	ground_torque3_y	ground_torque3_z	ground_force5_vx	ground_force5_vy	ground_force5_vz	ground_force5_px	ground_force5_py	ground_force5_pz	ground_torque5_x	ground_torque5_y	ground_torque5_z	ground_force4_vx	ground_force4_vy	ground_force4_vz	ground_force4_px	ground_force4_py	ground_force4_pz	ground_torque4_x	ground_torque4_y	ground_torque4_z	ground_force1_vx	ground_force1_vy	ground_force1_vz	ground_force1_px	ground_force1_py	ground_force1_pz	ground_torque1_x	ground_torque1_y	ground_torque1_z	ground_force2_vx	ground_force2_vy	ground_force2_vz	ground_force2_px	ground_force2_py	ground_force2_pz	ground_torque2_x	ground_torque2_y	ground_torque2_z
12.865000	6.935728	475.022949	-194.742706	0.133819	0.000000	-0.434447	0.000016	-0.049692	0.000006	-9.992750	476.874420	192.729736	0.165804	0.000000	-1.451345	0.000079	1.675939	0.000002	-2.103097	-9.335374	1.954668	0.200000	0.000000	-0.900000	-0.000000	-0.169460	-0.000000	-0.000000	-0.000000	0.000000	0.200000	0.000000	0.920000	0.000000	0.000000	0.000000	-2.509783	-113.080170	-0.092868	0.200000	0.000000	0.320000	0.000003	1.475115	-0.000000	
12.866000	7.418347	472.497559	-193.613785	0.133744	0.000000	-0.435681	-0.000008	-0.179273	0.000004	-9.671852	476.235291	194.336426	0.165790	0.000000	-1.451377	0.000045	1.839878	0.000000	-1.619970	-10.935844	2.438311	0.200000	0.000000	-0.900000	-0.000000	-0.246577	-0.000000	-0.000000	-0.000000	0.000000	0.200000	0.000000	0.920000	0.000000	0.000000	0.000000	-1.224993	-114.038612	-0.091851	0.200000	0.000000	0.320000	0.000003	1.372900	-0.000000	
12.867000	7.579218	472.815796	-193.936722	0.134256	0.000000	-0.436087	0.000000	-0.197279	-0.000002	-9.671852	474.321320	193.532410	0.165842	0.000000	-1.450745	0.000062	1.738242	-0.000001	-0.969622	-10.931806	2.597825	0.200000	0.000000	-0.900000	-0.000000	-0.174423	-0.000000	-1.385880	5.326720	-0.413290	0.195393	0.000000	1.059311	-0.000000	-0.219782	0.000000	-2.026400	-115.947823	0.871361	0.200000	0.000000	0.320000	0.000003	1.610035	-0.000000	
12.868000	7.418344	474.078796	-194.421143	0.134382	0.000000	-0.435465	0.000004	-0.397047	-0.000001	-9.993769	477.192627	193.532745	0.165895	0.000000	-1.451677	0.000020	1.760120	0.000008	-1.294796	-10.611577	3.081468	0.200000	0.000000	-0.900000	-0.000000	-0.219948	-0.000000	-0.000000	-0.000000	0.000000	0.200000	0.000000	0.920000	0.000000	0.000000	0.000000	-2.510629	-114.031982	1.032744	0.200000	0.000000	0.320000	0.000003	1.429710	-0.000000	
12.869000	6.613981	475.970734	-194.097168	0.133996	0.000000	-0.434236	0.000005	-0.082186	-0.000004	-9.510130	475.918091	193.853821	0.166528	0.000000	-1.451237	-0.000002	1.532215	0.000009	-1.457383	-8.691541	2.275737	0.200000	0.000000	-0.900000	-0.000000	-0.272097	-0.000000	-0.000000	-0.000000	0.000000	0.200000	0.000000	0.920000	0.000000	0.000000	0.000000	-1.543864	-113.715294	0.070550	0.200000	0.000000	0.320000	0.000003	1.507600	-0.000000	
12.870000	5.970488	475.973999	-194.098190	0.134633	0.000000	-0.434853	-0.000001	-0.120796	-0.000001	-9.511148	476.554871	193.854492	0.166078	0.000000	-1.451319	0.000059	1.826088	0.000001	-1.460472	-7.415680	2.760400	0.200000	0.000000	-0.900000	-0.000000	-0.343389	-0.000000	-1.871145	5.958970	-0.737754	0.168128	0.000000	1.018363	-0.000000	-0.084262	0.000000	-2.670064	-113.401543	-0.091851	0.200000	0.000000	0.320000	0.000003	1.468561	-0.000000	
12.871000	6.935724	475.345734	-194.581909	0.134848	0.000000	-0.435407	0.000007	-0.032332	0.000003	-9.833065	475.276947	193.211334	0.166130	0.000000	-1.450994	0.000051	1.736801	0.000006	-1.615336	-8.690872	2.438311	0.200000	0.000000	-0.900000	-0.000000	-0.052400	-0.000000	-0.000000	-0.000000	0.000000	0.200000	0.000000	0.920000	0.000000	0.000000	0.000000	-2.349502	-112.453339	0.069533	0.200000	0.000000	0.320000	0.000003	1.385082	-0.000000	
12.872000	7.096601	474.398285	-194.581573	0.134600	0.000000	-0.434980	-0.000006	-0.221430	0.000004	-9.190250	476.234619	193.693268	0.166702	0.000000	-1.450389	0.000072	1.777656	0.000001	-1.299429	-9.653581	2.115202	0.200000	0.000000	-0.900000	-0.000000	-0.414493	-0.000000	-1.223552	6.589697	-0.255302	0.185118	0.000000	0.957174	-0.000000	0.093526	0.000000	-1.543863	-112.758591	0.713030	0.200000	0.000000	0.320000	0.000003	1.545966	-0.000000	
12.873000	6.774855	475.032745	-194.743042	0.135425	0.000000	-0.436281	0.000019	-0.056003	0.000001	-10.156000	476.553223	193.211670	0.166336	0.000000	-1.451373	0.000000	1.852499	0.000007	-1.935878	-9.657955	2.278796	0.200000	0.000000	-0.900000	-0.000000	0.134658	-0.000000	-0.000000	-0.000000	0.000000	0.200000	0.000000	0.920000	0.000000	0.000000	0.000000	-2.508937	-112.438454	0.551647	0.200000	0.000000	0.320000	0.000003	1.500542	-0.000000	
12.874000	6.774857	476.299042	-193.613785	0.135501	0.000000	-0.434923	0.000015	0.124545	-0.000007	-9.834084	477.510193	193.051147	0.166532	0.000000	-1.451100	0.000001	1.841506	0.000004	-2.264140	-7.418705	1.631560	0.200000	0.000000	-0.900000	-0.000000	-0.176025	-0.000000	-0.000000	-0.000000	0.000000	0.200000	0.000000	0.920000	0.000000	0.000000	0.000000	-2.349502	-111.488007	0.069533	0.200000	0.000000	0.320000	0.000003	1.385082	-0.000000	
12.875000	5.487871	477.241241	-194.905212	0.135126	0.000000	-0.435151	0.000003	0.024354	-0.000003	-10.477407	478.150604	193.211670	0.166650	0.000000	-1.451652	0.000044	1.714912	0.000004	-2.428272	-8.055128	2.114183	0.200000	0.000000	-0.900000	-0.000000	-0.292410	-0.000000	-0.000000	-0.000000	0.000000	0.200000	0.000000	0.920000	0.000000	0.000000	0.000000	-2.185835	-110.219360	-0.411564	0.200000	0.000000	0.320000	0.000002	1.552422	-0.000000	
